<svg id="Layer_1" data-name="Layer 1" xmlns="http://www.w3.org/2000/svg" viewBox="0 0 431.49 147.71">
  <defs>
    <style>
      .cls-1 {
        fill: none;
        stroke: #231f20;
        stroke-miterlimit: 10;
        stroke-width: 8px;
      }

      .cls-2 {
        fill: #231f20;
        stroke-width: 0px;
      }
    </style>
  </defs>
  <g>
    <path class="cls-2" d="m41.72,92.61c-3.92,0-7.41-.53-10.48-1.58-3.07-1.05-5.82-2.52-8.25-4.42l3.28-7.73c2.23,1.73,4.58,3.09,7.08,4.08,2.49.99,5.35,1.48,8.56,1.48,2.6,0,4.55-.54,5.87-1.61,1.32-1.07,1.98-2.49,1.98-4.27,0-2.06-.72-3.52-2.16-4.39-1.44-.87-4.04-1.77-7.79-2.72-5.77-1.4-9.78-3.17-12.02-5.32-2.25-2.14-3.37-5.25-3.37-9.33,0-4.33,1.46-7.86,4.39-10.6,2.93-2.74,7.15-4.11,12.67-4.11,3.13,0,6.22.54,9.27,1.63,3.05,1.09,5.56,2.46,7.54,4.1l-2.84,7.4c-2.23-1.57-4.47-2.8-6.74-3.67-2.27-.87-4.64-1.3-7.11-1.3-2.19,0-3.85.45-5.01,1.34-1.15.89-1.73,2.23-1.73,4.01s.67,3.11,2.01,4.1c1.34.99,4.09,2.01,8.25,3.04,5.65,1.32,9.58,3.08,11.81,5.29,2.23,2.21,3.34,5.43,3.34,9.67,0,4.78-1.71,8.46-5.13,11.03-3.42,2.58-7.89,3.86-13.41,3.86Z"/>
    <path class="cls-2" d="m95.56,92.05l-3.03-12.05h-14.96l-3.21,12.05h-9.71l14.22-49.45h12.55l14.22,49.45h-10.08Zm-5.07-20.21l-5.19-20.89-5.56,20.89h10.76Z"/>
    <path class="cls-2" d="m124.8,77.52l-6.74-19.41.99,33.94h-9.27v-49.45h10.51l8.28,24.91,8.22-24.91h10.2v49.45h-9.21l.87-33.69-6.61,19.16h-7.23Z"/>
    <path class="cls-2" d="m154.04,92.05v-49.45h18.17c5.44,0,9.46.95,12.05,2.84,2.6,1.9,3.89,4.82,3.89,8.78v2.29c0,2.51-.59,4.45-1.76,5.81-1.17,1.36-2.98,2.25-5.41,2.66v1.79c2.76.29,4.9,1.27,6.43,2.94,1.52,1.67,2.29,3.78,2.29,6.34v3.09c0,4.41-1.42,7.67-4.27,9.77-2.84,2.1-7.25,3.15-13.23,3.15h-18.17Zm10.51-29.3h6.99c2.23,0,3.82-.38,4.79-1.14.97-.76,1.45-2.03,1.45-3.8v-2.6c0-1.77-.49-3.03-1.45-3.77-.97-.74-2.57-1.11-4.79-1.11h-6.99v12.43Zm0,21.57h7.17c2.72,0,4.65-.44,5.78-1.33,1.13-.89,1.7-2.38,1.7-4.48v-2.84c0-2.06-.57-3.53-1.7-4.42-1.13-.89-3.06-1.33-5.78-1.33h-7.17v14.4Z"/>
    <path class="cls-2" d="m225.38,92.05l-3.03-12.05h-14.96l-3.21,12.05h-9.71l14.22-49.45h12.55l14.22,49.45h-10.08Zm-5.07-20.21l-5.19-20.89-5.56,20.89h10.76Z"/>
    <path class="cls-2" d="m263.33,92.05l-5.01-24.11-5.07,24.11h-9.4l-6.43-49.45h9.15l2.91,37.46,4.82-25.1h7.79l4.95,24.42,2.91-36.78h9.09l-6.49,49.45h-9.21Z"/>
    <path class="cls-2" d="m301.48,92.67c-5.89,0-10.37-1.43-13.42-4.3-3.05-2.86-4.57-6.91-4.57-12.15v-17.56c0-5.27,1.53-9.38,4.61-12.3,3.07-2.93,7.55-4.39,13.45-4.39s10.35,1.46,13.38,4.39c3.03,2.93,4.54,7.03,4.54,12.3v17.56c0,5.23-1.52,9.28-4.57,12.15-3.05,2.86-7.52,4.3-13.41,4.3Zm0-8.16c2.68,0,4.59-.69,5.75-2.07,1.15-1.38,1.73-3.74,1.73-7.08v-15.83c0-3.34-.58-5.74-1.73-7.2-1.15-1.46-3.07-2.19-5.75-2.19s-4.6.73-5.75,2.19c-1.15,1.46-1.73,3.86-1.73,7.2v15.83c0,3.34.58,5.7,1.73,7.08,1.15,1.38,3.07,2.07,5.75,2.07Z"/>
    <path class="cls-2" d="m344.75,92.67c-5.89,0-10.37-1.43-13.42-4.3-3.05-2.86-4.57-6.91-4.57-12.15v-17.56c0-5.27,1.53-9.38,4.61-12.3,3.07-2.93,7.55-4.39,13.45-4.39s10.35,1.46,13.38,4.39c3.03,2.93,4.54,7.03,4.54,12.3v17.56c0,5.23-1.52,9.28-4.57,12.15-3.05,2.86-7.52,4.3-13.41,4.3Zm0-8.16c2.68,0,4.59-.69,5.75-2.07,1.15-1.38,1.73-3.74,1.73-7.08v-15.83c0-3.34-.58-5.74-1.73-7.2-1.15-1.46-3.07-2.19-5.75-2.19s-4.6.73-5.75,2.19c-1.15,1.46-1.73,3.86-1.73,7.2v15.83c0,3.34.58,5.7,1.73,7.08,1.15,1.38,3.07,2.07,5.75,2.07Z"/>
    <path class="cls-2" d="m370.4,92.05v-49.45h17.12c5.77,0,10.29,1.64,13.57,4.91s4.91,7.63,4.91,13.07v13.72c0,5.4-1.64,9.71-4.91,12.92s-7.82,4.82-13.63,4.82h-17.06Zm10.51-8.16h5.69c3.21,0,5.5-.82,6.86-2.47,1.36-1.65,2.04-4.31,2.04-7.97v-11.99c0-3.71-.68-6.42-2.04-8.13-1.36-1.71-3.65-2.57-6.86-2.57h-5.69v33.13Z"/>
  </g>
  <rect class="cls-1" x="4" y="4" width="423.48" height="122.61"/>
  <rect class="cls-2" x="157.73" y="137.97" width="273.76" height="7.33"/>
  <g>
    <path class="cls-2" d="m6.31,147.56l-1.18-5.67-1.19,5.67H1.73l-1.51-11.64h2.15l.68,8.81,1.13-5.91h1.83l1.16,5.75.68-8.65h2.14l-1.53,11.64h-2.17Z"/>
    <path class="cls-2" d="m11.14,147.56v-11.64h8.38v1.92h-5.91v2.53h5.18v1.92h-5.18v3.35h5.91v1.92h-8.38Z"/>
    <path class="cls-2" d="m31.5,147.56v-11.64h4.28c1.28,0,2.23.22,2.84.67.61.45.92,1.13.92,2.07v.54c0,.59-.14,1.05-.41,1.37-.28.32-.7.53-1.27.63v.42c.65.07,1.15.3,1.51.69.36.39.54.89.54,1.49v.73c0,1.04-.33,1.8-1,2.3s-1.71.74-3.11.74h-4.28Zm2.47-6.89h1.64c.52,0,.9-.09,1.13-.27.23-.18.34-.48.34-.89v-.61c0-.42-.11-.71-.34-.89-.23-.17-.6-.26-1.13-.26h-1.64v2.92Zm0,5.08h1.69c.64,0,1.09-.1,1.36-.31s.4-.56.4-1.05v-.67c0-.48-.13-.83-.4-1.04s-.72-.31-1.36-.31h-1.69v3.39Z"/>
    <path class="cls-2" d="m45.83,147.71c-1.42,0-2.46-.34-3.13-1.03-.67-.68-1.01-1.73-1.01-3.15v-7.61h2.47v7.51c0,.85.13,1.44.39,1.77.26.33.69.49,1.29.49s1.03-.16,1.29-.49c.26-.32.39-.91.39-1.77v-7.51h2.47v7.61c0,1.42-.34,2.47-1.01,3.15-.67.68-1.72,1.03-3.13,1.03Z"/>
    <path class="cls-2" d="m51.87,147.56v-1.92h2.91v-7.8h-2.91v-1.92h8.29v1.92h-2.91v7.8h2.91v1.92h-8.29Z"/>
    <path class="cls-2" d="m62.78,147.56v-11.64h2.47v9.72h5.09v1.92h-7.56Z"/>
    <path class="cls-2" d="m72.23,147.56v-11.64h4.03c1.36,0,2.42.39,3.19,1.16.77.77,1.16,1.8,1.16,3.08v3.23c0,1.27-.39,2.28-1.16,3.04-.77.76-1.84,1.13-3.21,1.13h-4.01Zm2.47-1.92h1.34c.76,0,1.29-.19,1.61-.58.32-.39.48-1.01.48-1.88v-2.82c0-.87-.16-1.51-.48-1.91-.32-.4-.86-.6-1.61-.6h-1.34v7.8Z"/>
    <path class="cls-2" d="m92.59,147.56v-11.64h4.03c1.36,0,2.42.39,3.19,1.16.77.77,1.16,1.8,1.16,3.08v3.23c0,1.27-.39,2.28-1.16,3.04-.77.76-1.84,1.13-3.21,1.13h-4.01Zm2.47-1.92h1.34c.76,0,1.29-.19,1.61-.58.32-.39.48-1.01.48-1.88v-2.82c0-.87-.16-1.51-.48-1.91-.32-.4-.86-.6-1.61-.6h-1.34v7.8Z"/>
    <path class="cls-2" d="m102.78,147.56v-11.64h8.38v1.92h-5.91v2.53h5.18v1.92h-5.18v3.35h5.91v1.92h-8.38Z"/>
    <path class="cls-2" d="m117.07,147.69c-.92,0-1.74-.12-2.47-.37-.72-.25-1.37-.59-1.94-1.04l.77-1.82c.52.41,1.08.73,1.67.96s1.26.35,2.01.35c.61,0,1.07-.13,1.38-.38.31-.25.47-.59.47-1,0-.48-.17-.83-.51-1.03-.34-.2-.95-.42-1.83-.64-1.36-.33-2.3-.75-2.83-1.25-.53-.5-.79-1.24-.79-2.2,0-1.02.34-1.85,1.03-2.49.69-.64,1.68-.97,2.98-.97.74,0,1.46.13,2.18.38.72.26,1.31.58,1.77.96l-.67,1.74c-.52-.37-1.05-.66-1.59-.86-.53-.2-1.09-.31-1.67-.31-.51,0-.91.1-1.18.31s-.41.52-.41.94.16.73.47.96.96.47,1.94.72c1.33.31,2.25.73,2.78,1.24.52.52.79,1.28.79,2.28,0,1.12-.4,1.99-1.21,2.6-.81.61-1.86.91-3.16.91Z"/>
    <path class="cls-2" d="m123.14,147.56v-1.92h2.91v-7.8h-2.91v-1.92h8.29v1.92h-2.91v7.8h2.91v1.92h-8.29Z"/>
    <path class="cls-2" d="m137.57,147.71c-1.39,0-2.46-.35-3.21-1.05-.75-.7-1.13-1.71-1.13-3.02v-3.72c0-1.33.37-2.35,1.11-3.06.74-.71,1.8-1.07,3.19-1.07s2.36.31,3.05.94,1.06,1.53,1.13,2.71l-2.47.15c-.06-.7-.21-1.19-.47-1.46-.25-.28-.66-.41-1.22-.41-.67,0-1.14.18-1.42.53-.28.35-.41.98-.41,1.88v3.32c0,.87.14,1.48.41,1.83s.75.52,1.43.52,1.12-.18,1.38-.53c.26-.35.39-.98.38-1.88h-1.85v-1.92h4.32v2.14c0,1.33-.36,2.35-1.09,3.05-.73.71-1.77,1.06-3.13,1.06Z"/>
    <path class="cls-2" d="m148.8,147.56l-3.17-8.29v8.29h-2.12v-11.64h2.81l3.36,8.79v-8.79h2.12v11.64h-3Z"/>
  </g>
</svg>